<svg xmlns="http://www.w3.org/2000/svg" viewBox="0 0 70.88 79.95"><defs><style>.cls-1{fill:#3eb208;}</style></defs><title>Asset 5</title><g id="Layer_2" data-name="Layer 2"><g id="Layer_1-2" data-name="Layer 1"><path class="cls-1" d="M35.43,80a6.28,6.28,0,0,1-3.08-.82l-9.79-5.8c-1.46-.82-.75-1.11-.27-1.26a19.73,19.73,0,0,0,4.43-2,.72.72,0,0,1,.73.06L35,74.57a.9.9,0,0,0,.9,0l29.3-16.91a1,1,0,0,0,.45-.79V23a1,1,0,0,0-.46-.81L35.87,5.34a.9.9,0,0,0-.9,0L5.7,22.25a.92.92,0,0,0-.46.81V56.87a.86.86,0,0,0,.46.77l8,4.64c4.37,2.17,7-.38,7-3V25.93a.84.84,0,0,1,.86-.84h3.71a.85.85,0,0,1,.86.84v33.4c0,5.8-3.18,9.13-8.68,9.13-1.7,0-3,0-6.74-1.84L3.08,62.2A6.16,6.16,0,0,1,0,56.85V23A6.16,6.16,0,0,1,3.08,17.7L32.35.79a6.4,6.4,0,0,1,6.15,0L67.81,17.71a6.18,6.18,0,0,1,3.07,5.35V56.87a6.2,6.2,0,0,1-3.07,5.34L38.5,79.13A6.24,6.24,0,0,1,35.43,80ZM59.08,46.62c0-6.33-4.28-8-13.28-9.2s-10-1.83-10-4c0-1.76.78-4.11,7.52-4.11,6,0,8.24,1.3,9.16,5.36a.85.85,0,0,0,.82.67h3.81a.85.85,0,0,0,.62-.27.88.88,0,0,0,.22-.65c-.59-7-5.23-10.25-14.63-10.25C34.93,24.22,30,27.74,30,33.66c0,6.41,5,8.18,13,9,9.6.93,10.34,2.34,10.34,4.23,0,3.27-2.63,4.67-8.8,4.67-7.76,0-9.46-1.95-10-5.81A.83.83,0,0,0,33.6,45H29.81a.83.83,0,0,0-.84.84c0,4.93,2.68,10.82,15.51,10.82,9.27,0,14.6-3.68,14.6-10.06Z"/></g></g></svg>