<svg xmlns="http://www.w3.org/2000/svg" viewBox="0 0 91.27 48"><defs><style>.cls-1{fill:#0b66aa;}</style></defs><title>Asset 3</title><g id="Layer_2" data-name="Layer 2"><g id="Layer_1-2" data-name="Layer 1"><path class="cls-1" d="M45.63,2.4C70.07,2.4,88.87,12.69,88.87,24S70.06,45.6,45.63,45.6,2.4,35.31,2.4,24,21.2,2.4,45.63,2.4m0-2.4C20.43,0,0,10.74,0,24S20.43,48,45.63,48,91.27,37.26,91.27,24,70.83,0,45.63,0ZM31.12,22.07c-1.13,5.78-5.11,5.18-10,5.18l1.95-10.07c5.42,0,9.1-.58,8.05,4.89ZM13.89,37.45h5.23l1.24-6.39c5.86,0,9.5.43,12.87-2.72,3.72-3.43,4.69-9.52,2-12.57-1.39-1.6-3.61-2.38-6.64-2.38H18.55ZM40.37,7h5.21l-1.24,6.39c4.49,0,8.65-.33,10.66,1.52S56.1,19.32,53.82,31H48.54c2.2-11.32,2.61-12.26,1.81-13.12s-2.52-.66-6.76-.66L40.91,31h-5.2L40.37,7ZM72,22.07c-1.14,5.87-5.23,5.18-10,5.18L64,17.18c5.45,0,9.1-.58,8,4.89ZM54.79,37.45H60l1.24-6.39c6.16,0,9.56.36,12.86-2.72,3.72-3.43,4.69-9.52,2-12.57-1.38-1.6-3.61-2.38-6.63-2.38H59.47Z"/></g></g></svg>