<svg xmlns="http://www.w3.org/2000/svg" viewBox="0 0 67.73 67.73"><defs><style>.cls-1{fill:#ff0;}</style></defs><title>Asset 6</title><g id="Layer_2" data-name="Layer 2"><g id="Layer_1-2" data-name="Layer 1"><path class="cls-1" d="M0,0V67.73H67.73V0ZM36.86,52.83c0,6.59-3.87,9.6-9.51,9.6a9.9,9.9,0,0,1-9.56-5.83L23,53.48c1,1.76,1.91,3.26,4.1,3.26s3.41-.82,3.41-4V31.1h6.37V52.83Zm15.06,9.6c-5.91,0-9.74-2.82-11.6-6.51l5.19-3c1.36,2.22,3.14,3.87,6.27,3.87,2.63,0,4.33-1.31,4.33-3.14,0-2.18-1.73-2.95-4.65-4.24l-1.58-.68c-4.6-2-7.64-4.41-7.64-9.6,0-4.77,3.65-8.4,9.32-8.4,4,0,6.95,1.4,9,5.09l-5,3.18c-1.09-1.95-2.27-2.72-4.1-2.72a2.76,2.76,0,0,0-3,2.72c0,1.9,1.18,2.67,3.92,3.87l1.58.68c5.42,2.31,8.46,4.68,8.46,10,0,5.71-4.51,8.86-10.54,8.86Z"/></g></g></svg>