<svg xmlns="http://www.w3.org/2000/svg" viewBox="0 0 95.89 71.92"><defs><style>.cls-1{fill:#d807b1;}</style></defs><title>Asset 2</title><g id="Layer_2" data-name="Layer 2"><g id="Layer_1-2" data-name="Layer 1"><path class="cls-1" d="M82.55,41.34a19.68,19.68,0,0,0-8.69,2,18.18,18.18,0,0,1-2-4.51,12,12,0,0,1-.16-3.79A30.56,30.56,0,0,1,72.89,31c0-.17-.21-1-2.15-1s-3.59.38-3.79.89a18.61,18.61,0,0,0-.79,2.86c-.35,1.75-3.86,8-5.86,11.28A11.56,11.56,0,0,1,59,41.71a12,12,0,0,1-.17-3.79,32.79,32.79,0,0,1,1.14-4.07c0-.17-.21-1-2.14-1s-3.59.38-3.79.89-.4,1.71-.79,2.86-5.08,11.58-6.31,14.29c-.63,1.38-1.17,2.49-1.56,3.24l-.13.25c0-.07.07-.15.07-.12-.32.65-.52,1-.52,1h0c-.25.48-.54.92-.67.92a6.16,6.16,0,0,1,0-3c.71-3.63,2.37-9.26,2.35-9.46s.32-1.08-1.09-1.6a1.76,1.76,0,0,0-2,.33c-.12,0-.21.3-.21.3s1.52-6.36-2.9-6.36c-2.76,0-6.6,3-8.48,5.77l-6.44,3.52-3.1,1.71c-.08-.07-.14-.15-.21-.22C16.71,41.47,6.81,37.43,7.23,29.74c.15-2.8,1.13-10.16,19-19.09C41,3.34,52.69,5.35,54.71,9.82,57.62,16.18,48.44,28,33.19,29.74c-5.81.65-8.87-1.6-9.63-2.44s-.91-.93-1.21-.76c-.5.27-.18,1.05,0,1.51.45,1.18,2.32,3.28,5.51,4.33,2.8.91,9.61,1.42,17.85-1.77C55,27.05,62.17,17.11,60.06,8.8S43.9-2.42,30.65,2.28c-7.9,2.8-16.43,7.21-22.57,12.94C.78,22.06-.39,28,.09,30.49,1.8,39.32,14,45.07,18.83,49.32l-.67.38c-2.44,1.21-11.72,6.07-14,11.19-2.62,5.81.44,10,2.44,10.55,6.26,1.74,12.68-1.39,16.12-6.53s3-11.85,1.44-14.91a1.33,1.33,0,0,1-.06-.12c.63-.38,1.27-.75,1.92-1.12,1.24-.74,2.45-1.41,3.52-2a23.11,23.11,0,0,0-1.26,6.39c-.27,3.29,1.09,7.56,2.86,9.24a3.16,3.16,0,0,0,2.3.75c2.07,0,3-1.71,4-3.75,1.28-2.48,2.4-5.38,2.4-5.38s-1.41,7.83,2.44,7.83c1.41,0,2.82-1.82,3.45-2.75v0l.1-.18.23-.36v0c.57-1,1.81-3.2,3.68-6.89,2.43-4.76,4.75-10.71,4.75-10.71a30.27,30.27,0,0,0,.93,3.87,35.4,35.4,0,0,0,2,4.49c-.57.78-.92,1.23-.92,1.23s0,0,0,0c-.45.6-1,1.24-1.49,1.87A54.9,54.9,0,0,0,50.54,58,1.54,1.54,0,0,0,51,60.1a3.61,3.61,0,0,0,2.35.37,10.36,10.36,0,0,0,3.52-.81,12,12,0,0,0,3-1.59,6.74,6.74,0,0,0,2.9-6,12.36,12.36,0,0,0-1.09-4.22l.51-.75a80.89,80.89,0,0,0,5.26-9.08,30.49,30.49,0,0,0,.92,3.86,27,27,0,0,0,1.71,3.85A16.54,16.54,0,0,0,65,52.38c-1.1,3.19-.24,4.63,1.4,5a5,5,0,0,0,2.56-.53,11.5,11.5,0,0,0,3.23-1.66c1.88-1.38,3.69-3.31,3.57-5.93a11.41,11.41,0,0,0-.81-3.51,18.26,18.26,0,0,1,9.3-1.08c8.34,1,10,6.19,9.66,8.36a5.5,5.5,0,0,1-2.65,3.75c-.58.36-.76.49-.72.76s.35.38.84.29A6.52,6.52,0,0,0,95.88,52c.24-5.1-4.66-10.7-13.34-10.65ZM18.25,63c-2.76,3-6.62,4.15-8.29,3.19s-1.07-5.47,2.33-8.68a43.76,43.76,0,0,1,6.5-4.85l1.7-1,.18-.1.44-.26A12,12,0,0,1,18.25,63Zm20.13-13.7c-1,2.36-3,8.35-4.21,8-1.05-.27-1.69-4.84-.21-9.34a20.84,20.84,0,0,1,3.28-6c1.51-1.69,3.17-2.23,3.56-1.55.53.88-1.82,7.4-2.42,8.86Zm16.63,8c-.41.21-.78.34-1,.24s.16-.36.16-.36,2.09-2.24,2.91-3.26c.48-.59,1-1.3,1.63-2.08,0,.08,0,.15,0,.24,0,2.68-2.6,4.5-3.77,5.22Zm12.82-2.93c-.3-.21-.25-.91.75-3.1a11.73,11.73,0,0,1,2.85-3.67,5.57,5.57,0,0,1,.28,1.62,5.27,5.27,0,0,1-3.88,5.15Z"/></g></g></svg>