<svg xmlns="http://www.w3.org/2000/svg" viewBox="0 0 448 512"><defs><style>.cls-1{fill:#fff;}</style></defs><title>book</title><g id="Layer_2" data-name="Layer 2"><g id="Layer_1-2" data-name="Layer 1"><path class="cls-1" d="M448,360V24A23.94,23.94,0,0,0,424,0H96A96,96,0,0,0,0,96V416a96,96,0,0,0,96,96H424a23.94,23.94,0,0,0,24-24V472a24.19,24.19,0,0,0-8.9-18.7c-4.2-15.4-4.2-59.3,0-74.7A23.83,23.83,0,0,0,448,360ZM90,113a6,6,0,0,1,6-6H308a6,6,0,0,1,6,6v20a6,6,0,0,1-6,6H96a6,6,0,0,1-6-6Zm0,64a6,6,0,0,1,6-6H308a6,6,0,0,1,6,6v20a6,6,0,0,1-6,6H96a6,6,0,0,1-6-6ZM343.4,427H58a32,32,0,0,1,0-64H343.4C341.5,380.1,341.5,409.9,343.4,427Z"/></g></g></svg>