<svg xmlns="http://www.w3.org/2000/svg" viewBox="0 0 533 448"><defs><style>.cls-1{fill:#fff;}</style></defs><title>sevver2</title><g id="Layer_2" data-name="Layer 2"><g id="Layer_1-2" data-name="Layer 1"><path class="cls-1" d="M501,128H53A32,32,0,0,1,21,96V32A32,32,0,0,1,53,0H501a32,32,0,0,1,32,32V96A32,32,0,0,1,501,128ZM453,40a24,24,0,1,0,24,24A24,24,0,0,0,453,40Zm-64,0a24,24,0,1,0,24,24A24,24,0,0,0,389,40Zm91,248H32A32,32,0,0,1,0,256V192a32,32,0,0,1,32-32H480a32,32,0,0,1,32,32v64A32,32,0,0,1,480,288Zm-48-88a24,24,0,1,0,24,24A24,24,0,0,0,432,200Zm-64,0a24,24,0,1,0,24,24A24,24,0,0,0,368,200ZM480,448H32A32,32,0,0,1,0,416V352a32,32,0,0,1,32-32H480a32,32,0,0,1,32,32v64A32,32,0,0,1,480,448Zm-48-88a24,24,0,1,0,24,24A24,24,0,0,0,432,360Zm-64,0a24,24,0,1,0,24,24A24,24,0,0,0,368,360Z"/></g></g></svg>