<svg xmlns="http://www.w3.org/2000/svg" viewBox="0 0 80 78"><defs><style>.cls-1{fill:#fff;}</style></defs><title>Asset 3</title><g id="Layer_2" data-name="Layer 2"><g id="Layer_1-2" data-name="Layer 1"><path class="cls-1" d="M26.76,62.81c0,.32-.37.58-.84.58s-.9-.21-.9-.58.37-.58.83-.58S26.76,62.44,26.76,62.81Zm-5-.73c-.11.32.21.69.7.79a.76.76,0,0,0,1-.32c.09-.32-.21-.7-.7-.84a.83.83,0,0,0-1,.37Zm7.13-.27c-.47.11-.79.42-.74.79s.47.53.95.42.79-.42.74-.75S29.34,61.76,28.87,61.81ZM39.48,0C17.11,0,0,17,0,39.35A40.45,40.45,0,0,0,27.34,77.94c2.06.37,2.79-.91,2.79-2s-.05-6.51-.05-9.9c0,0-11.29,2.42-13.66-4.81,0,0-1.84-4.69-4.48-5.9,0,0-3.7-2.53.25-2.48a8.51,8.51,0,0,1,6.23,4.16c3.53,6.22,9.45,4.43,11.76,3.37A9,9,0,0,1,32.76,55c-9-1-18.11-2.3-18.11-17.82,0-4.43,1.22-6.66,3.8-9.5a15.23,15.23,0,0,1,.42-10.95C22.24,15.66,30,21.06,30,21.06a38.14,38.14,0,0,1,20.26,0S58,15.65,61.39,16.71a15.22,15.22,0,0,1,.42,11c2.58,2.86,4.16,5.08,4.16,9.5C66,52.73,56.47,54,47.45,55c1.49,1.28,2.74,3.7,2.74,7.49,0,5.43,0,12.16,0,13.48,0,1,.74,2.32,2.79,2C69.06,72.55,80,57.24,80,39.35,80,17,61.85,0,39.48,0ZM15.68,55.63c-.21.16-.16.53.11.84s.63.37.84.16.16-.53-.11-.84S15.89,55.42,15.68,55.63Zm-1.74-1.31c-.12.21,0,.47.37.63a.48.48,0,0,0,.69-.11c.11-.21-.05-.47-.37-.63S14.05,54.16,13.94,54.32Zm5.22,5.74c-.26.21-.16.7.21,1s.84.42,1.05.17.11-.7-.21-1S19.37,59.81,19.16,60.06Zm-1.84-2.37c-.26.16-.26.58,0,1s.7.53.91.37a.75.75,0,0,0,0-1c-.23-.37-.65-.54-.91-.33Z"/></g></g></svg>