<svg xmlns="http://www.w3.org/2000/svg" viewBox="0 0 76.86 76.84"><defs><style>.cls-1{fill:#fff;}</style></defs><title>Asset 2</title><g id="Layer_2" data-name="Layer 2"><g id="Layer_1-2" data-name="Layer 1"><path class="cls-1" d="M38.44,18.72a19.7,19.7,0,1,0,19.7,19.7A19.67,19.67,0,0,0,38.44,18.72Zm0,32.51A12.81,12.81,0,1,1,51.25,38.42,12.83,12.83,0,0,1,38.44,51.23Zm25.1-33.32A4.6,4.6,0,1,1,59,13.32,4.59,4.59,0,0,1,63.54,17.91Zm13.05,4.67c-.29-6.16-1.7-11.61-6.21-16.1S60.44.58,54.28.27c-6.34-.36-25.36-.36-31.7,0C16.44.56,11,2,6.48,6.46S.58,16.4.27,22.56c-.36,6.34-.36,25.36,0,31.7C.56,60.42,2,65.87,6.48,70.36s9.94,5.9,16.1,6.21c6.34.36,25.36.36,31.7,0,6.16-.29,11.61-1.7,16.1-6.21s5.9-9.94,6.21-16.1c.36-6.34.36-25.34,0-31.68Zm-8.2,38.49a13,13,0,0,1-7.3,7.31C56,70.38,44,69.92,38.44,69.92s-17.61.44-22.65-1.54a13,13,0,0,1-7.31-7.31C6.48,56,6.94,44,6.94,38.42S6.49,20.81,8.48,15.77a13,13,0,0,1,7.31-7.3c5.06-2,17.06-1.55,22.65-1.55s17.61-.44,22.65,1.55a12.91,12.91,0,0,1,7.3,7.3c2,5.06,1.55,17.06,1.55,22.65S70.4,56,68.39,61.07Z"/></g></g></svg>