<svg xmlns="http://www.w3.org/2000/svg" viewBox="0 0 66 53.61"><defs><style>.cls-1{fill:#fff;}</style></defs><title>Asset 4</title><g id="Layer_2" data-name="Layer 2"><g id="Layer_1-2" data-name="Layer 1"><path class="cls-1" d="M59.22,13.36c0,.59,0,1.17,0,1.76,0,17.88-13.61,38.49-38.49,38.49A38.18,38.18,0,0,1,0,47.53a27.12,27.12,0,0,0,3.27.17,27.05,27.05,0,0,0,16.79-5.78A13.55,13.55,0,0,1,7.41,32.54a16.58,16.58,0,0,0,2.56.21,14.47,14.47,0,0,0,3.56-.46A13.53,13.53,0,0,1,2.68,19v-.16a13.65,13.65,0,0,0,6.11,1.71,13.52,13.52,0,0,1-6-11.26A13.35,13.35,0,0,1,4.61,2.47,38.45,38.45,0,0,0,32.5,16.63a15.33,15.33,0,0,1-.34-3.1A13.54,13.54,0,0,1,55.57,4.27,26.72,26.72,0,0,0,64.16,1a13.51,13.51,0,0,1-5.95,7.45A27.27,27.27,0,0,0,66,6.37a29,29,0,0,1-6.78,7Z"/></g></g></svg>