<?xml version="1.0" encoding="utf-8"?>
<!-- Generator: Adobe Illustrator 23.0.2, SVG Export Plug-In . SVG Version: 6.00 Build 0)  -->
<svg version="1.1" id="Layer_1" xmlns="http://www.w3.org/2000/svg" xmlns:xlink="http://www.w3.org/1999/xlink" x="0px" y="0px"
	 viewBox="0 0 448 512" style="enable-background:new 0 0 448 512;" xml:space="preserve">
<style type="text/css">
	.st0{fill:#FFFFFF;}
</style>
<g>
	<path class="st0" d="M455.4,371V35c0-13.3-10.7-24-24-24h-328c-53,0-96,43-96,96v320c0,53,43,96,96,96h328c13.3,0,24-10.7,24-24
		v-16c0-7.5-3.5-14.3-8.9-18.7c-4.2-15.4-4.2-59.3,0-74.7C451.9,385.3,455.4,378.5,455.4,371L455.4,371z M97.4,124c0-3.3,2.7-6,6-6
		h212c3.3,0,6,2.7,6,6v20c0,3.3-2.7,6-6,6h-212c-3.3,0-6-2.7-6-6V124z M97.4,188c0-3.3,2.7-6,6-6h212c3.3,0,6,2.7,6,6v20
		c0,3.3-2.7,6-6,6h-212c-3.3,0-6-2.7-6-6V188z M350.8,438H65.4c-17.7,0-32-14.3-32-32c0-17.6,14.4-32,32-32h285.4
		C348.9,391.1,348.9,420.9,350.8,438z"/>
</g>
</svg>
